# xmcd CD database file
#
# Track frame offsets:
#	150
#	15402
#	35481
#	51521
#	67231
#	82211
#	101955
#	114569
#	128948
#
# Disc length: 2018 seconds
#
# Revision: 0
# Processed by: cddbd v1.5PL3 Copyright (c) Steve Scherf et al.
# Submitted via: CDex 1.51
#
DISCID=8507e009
DTITLE=EL JAYE - OOH WEE
DYEAR=1900
DGENRE=Blues
TTITLE0=OOH WEE
TTITLE1=BABY I LOVE YOU
TTITLE2=WAVE YOUR HANDS
TTITLE3=BEJUVINATION
TTITLE4=OOH WEE(REMIX)
TTITLE5=WHERE I STAND
TTITLE6=ALL ABOUT MONEY
TTITLE7=HE SAY SHE SAID
TTITLE8=WOMAN OF MY DREAMS
EXTD=
EXTT0=
EXTT1=
EXTT2=
EXTT3=
EXTT4=
EXTT5=
EXTT6=
EXTT7=
EXTT8=
PLAYORDER=
